name rise49.25peak52.1432fall72.8391.mot
datacolumns 19
datarows 29
range 23.14324100000000 23.18991400000000
endheader
time	ground_force1_vx	ground_force1_vy	ground_force1_vz	ground_force1_px	ground_force1_py	ground_force1_pz	ground_force2_vx	ground_force2_vy	ground_force2_vz	ground_force2_px	ground_force2_py	ground_force2_pz	ground_torque1_x	ground_torque1_y	ground_torque1_z	ground_torque2_x	ground_torque2_y	ground_torque2_z	
23.14324100000000	-42.17632300000000	802.84947699999998	47.93572600000000	0.14722200000000	0.00000000000000	0.09253800000000	0.00000000000000	0.00000000000000	0.00000000000000	0.00000000000000	0.00000000000000	0.00000000000000	0.00000000000000	21.89859000000000	0.00000000000000	0.00000000000000	0.00000000000000	0.00000000000000	
23.14491500000000	-42.84514700000000	802.01829499999997	47.95271900000000	0.14609300000000	0.00000000000000	0.09248700000000	-0.85071000000000	3.73755200000000	0.69586400000000	0.00000000000000	0.00000000000000	0.00000000000000	0.00000000000000	21.86248300000000	0.00000000000000	0.00000000000000	0.15845400000000	0.00000000000000	
23.14657600000000	-43.52404800000000	801.08239200000003	47.95340900000000	0.14498000000000	0.00000000000000	0.09243400000000	-1.38350100000000	7.29494400000000	1.19522200000000	0.00000000000000	0.00000000000000	0.00000000000000	0.00000000000000	21.82436200000000	0.00000000000000	0.00000000000000	0.28887000000000	0.00000000000000	
23.14824300000000	-44.21293600000000	800.03843099999995	47.93704600000000	0.14388200000000	0.00000000000000	0.09237700000000	-1.98985400000000	11.60486600000000	1.77709700000000	0.00000000000000	0.00000000000000	0.00000000000000	0.00000000000000	21.78426100000000	0.00000000000000	0.00000000000000	0.44381000000000	0.00000000000000	
23.14990800000000	-44.91167500000000	798.88307399999997	47.90289900000000	0.14280200000000	0.00000000000000	0.09231800000000	-2.65219500000000	16.62450800000000	2.42885700000000	0.00000000000000	0.00000000000000	0.00000000000000	0.00000000000000	21.74221100000000	0.00000000000000	0.00000000000000	0.62077600000000	0.00000000000000	
23.15157600000000	-45.62008100000000	797.61298199999999	47.85026100000000	0.14174000000000	0.00000000000000	0.09225400000000	-3.34819600000000	22.27808300000000	3.13333100000000	0.00000000000000	0.00000000000000	0.00000000000000	0.00000000000000	21.69823600000000	0.00000000000000	0.00000000000000	0.81604700000000	0.00000000000000	
23.15324400000000	-46.33792400000000	796.22482500000001	47.77845400000000	0.14069800000000	0.00000000000000	0.09218700000000	-4.05218800000000	28.46252500000000	3.86994000000000	0.30834100000000	0.00000000000000	-0.08649200000000	0.00000000000000	21.65235200000000	0.00000000000000	0.00000000000000	1.86770500000000	0.00000000000000	
23.15490900000000	-47.06492500000000	794.71528200000000	47.68682500000000	0.13967700000000	0.00000000000000	0.09211700000000	-4.73698600000000	35.05611800000000	4.61621200000000	0.31703100000000	0.00000000000000	-0.08649700000000	0.00000000000000	21.60457200000000	0.00000000000000	0.00000000000000	2.29585200000000	0.00000000000000	
23.15657200000000	-47.80075200000000	793.08105100000000	47.57475800000000	0.13867800000000	0.00000000000000	0.09204300000000	-5.37587900000000	41.92892300000000	5.34950200000000	0.32500800000000	0.00000000000000	-0.08649300000000	0.00000000000000	21.55489700000000	0.00000000000000	0.00000000000000	2.73570600000000	0.00000000000000	
23.15825400000000	-48.54501800000000	791.31884600000001	47.44167000000000	0.13770000000000	0.00000000000000	0.09196500000000	-5.94452200000000	48.95349900000000	6.04866200000000	0.33237100000000	0.00000000000000	-0.08648400000000	0.00000000000000	21.50332300000000	0.00000000000000	0.00000000000000	3.17576100000000	0.00000000000000	
23.15991200000000	-49.29728500000000	789.42541300000005	47.28701800000000	0.13674600000000	0.00000000000000	0.09188300000000	-6.42249000000000	56.01450800000000	6.69545200000000	0.33920100000000	0.00000000000000	-0.08647300000000	0.00000000000000	21.44983700000000	0.00000000000000	0.00000000000000	3.60535000000000	0.00000000000000	
23.16157700000000	-50.05705800000000	787.39752399999998	47.11029900000000	0.13581500000000	0.00000000000000	0.09179700000000	-6.79433800000000	63.01616800000000	7.27555200000000	0.34556200000000	0.00000000000000	-0.08646000000000	0.00000000000000	21.39441700000000	0.00000000000000	0.00000000000000	4.01531400000000	0.00000000000000	
23.16324500000000	-50.82378100000000	785.23199299999999	46.91105100000000	0.13490800000000	0.00000000000000	0.09170700000000	-7.05012000000000	69.88704400000000	7.77911800000000	0.35150600000000	0.00000000000000	-0.08644800000000	0.00000000000000	21.33703300000000	0.00000000000000	0.00000000000000	4.39847200000000	0.00000000000000	
23.16490900000000	-51.59684500000000	782.92567499999996	46.68886200000000	0.13402600000000	0.00000000000000	0.09161400000000	-7.18537500000000	76.58209200000000	8.20087900000000	0.35707400000000	0.00000000000000	-0.08643800000000	0.00000000000000	21.27764500000000	0.00000000000000	0.00000000000000	4.74984800000000	0.00000000000000	
23.16657500000000	-52.37557700000000	780.47547399999996	46.44336600000000	0.13316700000000	0.00000000000000	0.09151600000000	-7.20068200000000	83.08219300000000	8.53985100000000	0.36230100000000	0.00000000000000	-0.08642900000000	0.00000000000000	21.21620500000000	0.00000000000000	0.00000000000000	5.06668900000000	0.00000000000000	
23.16824700000000	-53.15924500000000	777.87834899999996	46.17424800000000	0.13233400000000	0.00000000000000	0.09141500000000	-7.10087200000000	89.39164200000000	8.79874100000000	0.36721800000000	0.00000000000000	-0.08642500000000	0.00000000000000	21.15265300000000	0.00000000000000	0.00000000000000	5.34829000000000	0.00000000000000	
23.16991200000000	-53.94705400000000	775.13132299999995	45.88124300000000	0.13152400000000	0.00000000000000	0.09130900000000	-6.89403900000000	95.53414200000000	8.98315600000000	0.37184700000000	0.00000000000000	-0.08642400000000	0.00000000000000	21.08692300000000	0.00000000000000	0.00000000000000	5.59567500000000	0.00000000000000	
23.17157400000000	-54.73814800000000	772.23148300000003	45.56414400000000	0.13073900000000	0.00000000000000	0.09120000000000	-6.59044900000000	101.54790300000001	9.10071100000000	0.37621000000000	0.00000000000000	-0.08642800000000	0.00000000000000	21.01893700000000	0.00000000000000	0.00000000000000	5.81119800000000	0.00000000000000	
23.17323900000000	-55.53160700000000	769.17599399999995	45.22279800000000	0.12997700000000	0.00000000000000	0.09108700000000	-6.20147400000000	107.48040500000000	9.16012200000000	0.38032500000000	0.00000000000000	-0.08643600000000	0.00000000000000	20.94861100000000	0.00000000000000	0.00000000000000	5.99808800000000	0.00000000000000	
23.17490800000000	-56.32645000000000	765.96210099999996	44.85711000000000	0.12923900000000	0.00000000000000	0.09097000000000	-5.73861500000000	113.38331100000001	9.17037500000000	0.38420700000000	0.00000000000000	-0.08645100000000	0.00000000000000	20.87585000000000	0.00000000000000	0.00000000000000	6.16000900000000	0.00000000000000	
23.17658100000000	-57.12162900000000	762.58713699999998	44.46704200000000	0.12852300000000	0.00000000000000	0.09084900000000	-5.21269300000000	119.30790900000000	9.14001200000000	0.38786900000000	0.00000000000000	-0.08647000000000	0.00000000000000	20.80055200000000	0.00000000000000	0.00000000000000	6.30066000000000	0.00000000000000	
23.17824700000000	-57.91603700000000	759.04853000000003	44.05261900000000	0.12783000000000	0.00000000000000	0.09072500000000	-4.63322800000000	125.30135199999999	9.07656800000000	0.39132200000000	0.00000000000000	-0.08649600000000	0.00000000000000	20.72260500000000	0.00000000000000	0.00000000000000	6.42342900000000	0.00000000000000	
23.17991000000000	-58.70850200000000	755.34381099999996	43.61392500000000	0.12715800000000	0.00000000000000	0.09059700000000	-4.00803600000000	131.40383700000001	8.98619600000000	0.39457700000000	0.00000000000000	-0.08652800000000	0.00000000000000	20.64189100000000	0.00000000000000	0.00000000000000	6.53114900000000	0.00000000000000	
23.18157400000000	-59.49778800000000	751.47061900000006	43.15110700000000	0.12650600000000	0.00000000000000	0.09046500000000	-3.34302000000000	137.64679400000000	8.87344600000000	0.39764200000000	0.00000000000000	-0.08656600000000	0.00000000000000	20.55828700000000	0.00000000000000	0.00000000000000	6.62592700000000	0.00000000000000	
23.18324600000000	-60.28260300000000	747.42671099999995	42.66437200000000	0.12587400000000	0.00000000000000	0.09033000000000	-2.64215300000000	144.05201700000001	8.74121900000000	0.40052600000000	0.00000000000000	-0.08661100000000	0.00000000000000	20.47166100000000	0.00000000000000	0.00000000000000	6.70906600000000	0.00000000000000	
23.18490800000000	-61.06158900000000	743.20997199999999	42.15399200000000	0.12526000000000	0.00000000000000	0.09019200000000	-1.90760800000000	150.63164499999999	8.59084000000000	0.40323600000000	0.00000000000000	-0.08666200000000	0.00000000000000	20.38187600000000	0.00000000000000	0.00000000000000	6.78106800000000	0.00000000000000	
23.18658000000000	-61.83333300000000	738.81841599999996	41.62030100000000	0.12466300000000	0.00000000000000	0.09005100000000	-1.14000500000000	157.38883899999999	8.42224700000000	0.40577800000000	0.00000000000000	-0.08672000000000	0.00000000000000	20.28879100000000	0.00000000000000	0.00000000000000	6.84169700000000	0.00000000000000	
23.18824300000000	-62.59636500000000	734.25020400000005	41.06369400000000	0.12408200000000	0.00000000000000	0.08990700000000	-0.33872600000000	164.31897300000000	8.23423900000000	0.40815700000000	0.00000000000000	-0.08678400000000	0.00000000000000	20.19226100000000	0.00000000000000	0.00000000000000	6.89009000000000	0.00000000000000	
23.18991400000000	-63.34915900000000	729.50364600000000	40.48462800000000	0.12351500000000	0.00000000000000	0.08975900000000	0.49772200000000	171.41115199999999	8.02477200000000	0.41038000000000	0.00000000000000	-0.08685500000000	0.00000000000000	20.09213900000000	0.00000000000000	0.00000000000000	6.92490200000000	0.00000000000000	
